<svg xmlns="http://www.w3.org/2000/svg" version="1.1" xmlns:xlink="http://www.w3.org/1999/xlink" xmlns:svgjs="http://svgjs.dev/svgjs" width="1500" height="780" viewBox="0 0 1500 780"><g transform="matrix(1,0,0,1,-0.9090909090909918,0.581222056631816)"><svg viewBox="0 0 396 206" data-background-color="#ffffff" preserveAspectRatio="xMidYMid meet" height="780" width="1500" xmlns="http://www.w3.org/2000/svg" xmlns:xlink="http://www.w3.org/1999/xlink"><g id="tight-bounds" transform="matrix(1,0,0,1,0.2400000000000091,-0.15350223546943198)"><svg viewBox="0 0 395.52 206.30700447093886" height="206.30700447093886" width="395.52"><g><svg viewBox="0 0 395.52 206.30700447093886" height="206.30700447093886" width="395.52"><g><svg viewBox="0 0 395.52 206.30700447093886" height="206.30700447093886" width="395.52"><g id="textblocktransform"><svg viewBox="0 0 395.52 206.30700447093886" height="206.30700447093886" width="395.52" id="textblock"><g><svg viewBox="0 0 395.52 206.30700447093886" height="206.30700447093886" width="395.52"><g transform="matrix(1,0,0,1,0,0)"><svg width="395.52" viewBox="1.25 -35 67.1 35" height="206.30700447093886" data-palette-color="#c85cc6"><path d="M1.25-34.05L1.25-35 16.5-35 16.5-34.05 13.75-34.05 13.75-18.25 14.15-18.35 28.25-34.05 24.3-34.05 24.3-35 33.05-35 33.05-34.05 30.05-34.05 21.45-24.45 33.45-0.95 36.15-0.95 36.15 0 20.1 0 20.1-0.95 22.45-0.95 14.2-16.9 13.75-16.8 13.75-0.95 16.5-0.95 16.5 0 1.25 0 1.25-0.95 4-0.95 4-34.05 1.25-34.05ZM37.75-34.05L37.75-35 52.7-35Q59.65-35 63.12-33.13 66.6-31.25 66.6-26.8L66.6-26.8Q66.6-19.95 58.35-18.6L58.35-18.6 58.35-18.5Q68.35-17.25 68.35-9.8L68.35-9.8Q68.35-4.35 64.25-2.18 60.15 0 52.45 0L52.45 0 37.75 0 37.75-0.95 41-0.95 41-34.05 37.75-34.05ZM51.9-17.7L50.75-17.7 50.75-0.95 53.1-0.95Q55.85-0.95 56.95-2.85 58.05-4.75 58.05-8.45L58.05-8.45 58.05-11.1Q58.05-14.4 56.7-16.05 55.35-17.7 51.9-17.7L51.9-17.7ZM52.35-34.05L50.75-34.05 50.75-18.65 52.05-18.65Q54.65-18.65 55.67-20.23 56.7-21.8 56.7-25.05L56.7-25.05 56.7-27.4Q56.7-31.1 55.8-32.58 54.9-34.05 52.35-34.05L52.35-34.05Z" opacity="1" transform="matrix(1,0,0,1,0,0)" fill="#c85cc6" class="wordmark-text-0" data-fill-palette-color="primary" id="text-0"></path></svg></g></svg></g></svg></g></svg></g></svg></g><defs></defs></svg><rect width="395.52" height="206.30700447093886" fill="none" stroke="none" visibility="hidden"></rect></g></svg></g></svg>